<?xml version="1.0" encoding="UTF-8"?>
<svg id="solid" xmlns="http://www.w3.org/2000/svg" viewBox="0 0 512 512">
  <path d="M358.63,218.06l-.13.22-.12-.05c.08-.06.16-.11.25-.17Z"/>
  <path d="M466.18,249.55v.02c.58,5.17.81,10.29.64,15.24-.26,8.49-1.7,16.55-4.52,23.69-3.52,9.01-9.24,16.58-17.61,21.76-4.89,3.1-10.71,5.35-17.55,6.6-3.42.62-8.08-.05-13.56-1.73h-.02c-6.71-2.07-14.61-5.63-22.86-10.14-2.9-1.61-5.9-3.34-8.95-5.2-3.29-2.03-6.42-4.05-9.38-6.06-4.21-2.86-8.35-5.86-12.29-8.94v-.02c-6.77-5.28-12.99-10.74-18.05-16.07-5.6-5.84-9.81-11.49-11.92-16.48-.85-1.98-1.35-3.85-1.48-5.6-.25-3.65,0-6.65.69-9.13,1.86-6.61,6.69-9.8,12.51-12.29,5.19-2.21,11.18-3.9,16.56-6.98l.12.05.13-.22c1.32-.76,2.59-1.63,3.82-2.6,1.75-1.4,3.3-2.95,4.72-4.64,4.11-4.87,7-10.82,9.62-16.9,3.08-7.03,5.79-14.23,9.66-20.02.13-.22.29-.46.44-.69,1.62-2.34,3.45-4.45,5.6-6.19,2.83-2.33,5.74-3.89,8.69-4.81,5.52-1.69,11.21-1.07,16.84,1.4h.02c5.08,2.2,10.09,5.89,14.86,10.72,3.99,4.05,7.82,8.88,11.38,14.28,2.85,4.34,5.52,9.04,7.94,14,2.26,4.58,4.32,9.38,6.14,14.33,1.78,4.87,3.31,9.85,4.59,14.9,1.48,5.89,2.58,11.83,3.23,17.7Z"/>
  <path d="M358.43,352.29l-.26.53-.27-.68c.19.06.35.11.53.15Z"/>
  <path d="M414.16,386.25l-.15.04.05-.25c.06.08.08.12.1.21Z"/>
  <path d="M192.47,269.77v.02c.43,6.68-2.91,15.51-10.79,27.74-.09.12-.19.27-.28.42-1.15,1.68-2.32,3.4-3.46,5.16-3.32,5.07-6.38,10.07-9.22,14.97-1,1.81-2.03,3.6-3.03,5.41-1.49,2.64-2.98,5.27-4.45,7.91-5.85,10.26-12.05,20.35-19.45,28.08-5.71,6.01-12.16,10.59-19.71,12.79-7.9,2.29-17.03,1.96-27.81-2.19-1.22-.46-2.48-1-3.76-1.56-6.51-2.9-12.23-7.05-17.24-12.12l.02-.16-.13.04c-4.98-5.05-9.21-10.99-12.73-17.51-2.25-4.18-4.21-8.59-5.91-13.16-.06-.15-.11-.3-.15-.45v-.02c-1.39-3.78-2.57-7.64-3.57-11.56-1.88-7.37-3.07-14.93-3.64-22.33l.05-.1h.16s-.08-.12-.08-.12l-.17-.27v-.02c-.63-8.66-.38-17.09.68-24.8.07-.46.12-.91.19-1.34.11-.8.25-1.57.39-2.35.75-4.16,1.92-9.75,3.53-15.79.67-2.46,1.39-4.97,2.19-7.49.1-.28.17-.54.27-.82,1.75-5.44,3.86-10.88,6.34-15.64.07-.12.12-.24.2-.36,2.69-5.14,5.82-9.46,9.41-12.11,2.75-2.05,5.76-3.09,9.06-2.76,1.4.14,2.78.73,4.13,1.64,5.77,6.1,9.96,10.6,10.07,10.76.08.1.16.2.16.2.06.08.11.16.16.22,2.29,2.85,4.52,5.47,6.76,6.97,1.74,1.17,3.52,2.24,5.36,3.26.1.05.22.13.31.18,7.56,4.16,15.85,7.18,24.15,9.61v.04s.12-.02.12-.02c3.12.93,6.24,1.75,9.34,2.51,2.93.74,5.73,1.42,8.45,2.1h.02c.37.08.74.19,1.11.27,3.62.84,7.34,1.78,11.17,2.84,3.5.97,6.9,1.98,10.16,3,6.29,2.06,11.37,4.31,15.01,7.14,4.04,3.08,6.36,6.83,6.63,11.74Z"/>
  <path d="M210.62,114.38c-1-6.18-2.42-12.77-4.28-19.5-.29-.94-.55-1.91-.84-2.85-1.25-4.27-2.69-8.58-4.33-12.84-2.61-6.83-5.71-13.52-9.29-19.72l-.02-.02c-4.42-7.63-9.55-14.51-15.48-19.95-4.88-4.51-10.32-8.05-16.26-10.22-4.8-1.77-9.93-2.63-15.44-2.43-.13,0-.27.01-.4.01s-.29.02-.44.04h-.02c-3.74.2-7.64.92-11.73,2.19-1.28.4-2.54.86-2.54.86-1.04.39-1.97.78-2.73,1.11-4.86,2.12-9.45,4.98-13.68,8.46-3.77,3.08-7.28,6.62-10.53,10.57-4.1,4.96-7.73,10.5-10.92,16.52l-.04.05h-.02c-3.04,5.69-5.68,11.76-7.88,18.06-1.43,4.08-2.66,8.24-3.69,12.44-1.16,4.69-2.1,9.41-2.77,14.15-.87,6.05-1.33,12.12-1.39,18.04v.02c.01.56,0,1.09,0,1.65.04,7.47.79,14.73,2.24,21.52,1.95,9.04,5.18,17.28,9.81,24.05,2.76,4.04,5.4,6.82,7.98,8.72,9.51,7.02,18.52,2.26,31.95,5.46,9.97,2.38,17.85,6.86,25.17,11.7.12.09.27.19.41.26,8.92,5.96,17,12.35,26.99,16.03v.02s.02,0,.02,0c4.42,1.65,9.19,2.73,14.59,3.04,10.28.58,14.2-3.06,15.4-4.37,3.42-3.73,2.63-9,3.47-10.99.08-.21.17-.42.25-.64,2.85-7.35,3.27-18.79,2.68-31.09-.47-9.62-1.57-19.78-2.63-28.94-.91-7.8-1.8-14.88-2.25-20.29v-.09c-.28-3.44-.75-7.15-1.37-11.04Z"/>
  <line x1="177.32" y1="397.01" x2="177.31" y2="396.99"/>
  <line x1="178.2" y1="396.98" x2="177.31" y2="396.99"/>
  <path d="M419.45,412.63c.33,11.67-1.45,24.1-4.93,35.49v.09c-.05.19-.12.31-.18.52-3.07,9.84-7.41,18.85-12.79,25.88-3.03,3.96-6.36,7.3-9.99,9.78-9.11,6.27-17.15,8.2-24.61,7.48-.02-.02-.07-.01-.11,0-11.13-1.11-20.99-8.08-31.21-15.27l-.1-.08c-5.88-4.13-11.9-8.32-18.33-11.48-.17-.09-.33-.15-.5-.24-5.33-2.55-10.93-4.39-17.01-4.94-2.03-.19-5.88-.26-10.47-.22l-.34-.51-.28-.39-.12.91c-10.92.14-25.51.95-29.37,2.71-.9.41-1.76.87-2.56,1.35l-.08-.08-.07.17h-.02c-.83.47-1.58,1-2.31,1.57-6.91,5.25-9.86,13.04-13.56,20.27-2.93,5.8-6.36,11.23-12.69,14.7-.54.3-1.06.57-1.61.8-.04.05-.08.06-.13.06-9.97,4.74-20.71,3.53-31.03-1.21-3.69-1.82-7.97-4.24-12.48-7.51-4.42-3.23-8.01-6.49-10.84-9.4l-.03-.04c-.47-.47-.93-.92-1.4-1.39-3.9-4.04-7.51-8.39-10.73-12.81-3.41-4.69-6.39-9.48-8.74-14.11h-.02s0-.02,0-.02c-2.68-5.19-4.59-10.17-5.59-14.56-.89-3.89-1.56-8.31-1.88-12.93-.54-7.53-.16-15.51,1.75-22.26,1.66-5.94,4.5-10.93,8.91-13.81,3.21-2.11,7.89.12,12.78,2.42,3.55,1.68,7.23,3.38,10.54,3.44h.02c.29,0,.58-.02.87-.03l.13-.02c.84-.07,1.64-.25,2.42-.6,8.97-3.93,9.81-13.86,13.9-21.32.17-.36.38-.68.57-1.02,3.76-6.14,6.39-12.93,8.53-20v-.02s.02-.02.02-.02c2.18-7.24,3.82-14.78,5.58-22.3v-.02c1.62-6.89,3.32-13.71,5.61-20.23,1.94-5.53,4.32-10.83,7.39-15.74.18-.29.38-.61.57-.9,3.05-4.64,6.74-8.91,11.39-12.65.14-.11.26-.21.4-.32,9.3-7.39,17.53-9.81,25.02-8.88,6.56.8,12.56,4.17,18.11,9.03,5.04,4.35,9.72,9.87,14.21,15.77h.02c4.43,5.82,8.67,12,12.88,17.8,3.66,5.01,7.25,9.76,10.92,13.7.99,1.07,2,2.09,3.05,3.06,2.12,1.96,4.69,4.09,7.72,6.19,2.68,1.84,5.25,3.32,7.58,4.52h.02c7.53,3.94,15.58,6.7,23.64,9.14l.27.68.26-.53c5.85,1.79,11.69,3.42,17.32,5.23,4.53,1.45,8.9,3.04,13.04,4.93.23.08.45.18.66.29h.02c4.55,2.12,8.8,4.61,12.6,7.73,2.28,1.83,4.39,3.88,6.32,6.21,2.27,2.72,4.15,5.86,5.68,9.33v.02s-.05.25-.05.25l.15-.04c3.36,7.59,5.04,16.72,5.29,26.39Z"/>
  <line x1="222.36" y1="295.68" x2="222.09" y2="294.74"/>
  <g>
    <path d="M372.79,111.69c.62,5.96.42,9.89.32,11.47-.19,3.53-.68,6.77-1.43,9.75-2.47,9.69-7.68,16.76-14.61,22.49-4.4,3.21-9.49,6.59-15.32,9.87-6.17,3.48-12,6.2-17.29,8.35v.02c-.25.1-.48.22-.73.35h-.02c-7.59,3.57-15.41,7.38-22.91,12.07-2.38,1.51-4.75,3.11-7.06,4.81-2.41,1.76-4.69,3.37-6.84,4.82h-.02c-2.49,1.71-5.35,3.48-8.64,5.18-2.48,1.28-4.86,2.34-7.08,3.22-15.9,5.91-21.81-2.48-24.19-16.3v-.09c-1.8-10.42-1.58-23.95-2.13-36.75-.07-3.25-.28-6.75-.65-10.44-.35-3.19-.76-6.19-1.26-9-.84-3.99-1.78-8.08-2.82-12.24-.94-3.8-1.92-7.5-2.93-11.09-2.19-8.36-4.57-17.38-6.44-26.5-.08-.39-.17-.78-.23-1.17-.1-.39-.17-.78-.25-1.19v-.02c-2.55-12.91-4.02-25.91-2.61-37.4,1.28-10.71,5.08-20.09,12.79-26.81.26-.24.49-.47.76-.66h.02c5.21-4.31,12.12-7.47,21.14-9.08,1.44-.26,2.95-.49,4.53-.67,5.47-.59,10.41-.42,14.63.07h.02c5.16.65,10.25,1.98,15.24,3.89,5.34,2.03,10.58,4.71,15.62,7.95.05.02.09.03.12.07,4.26,2.72,8.38,5.81,12.35,9.22,4.78,4.1,9.33,8.65,13.59,13.51.05.06.1.1.16.18v.02c6.27,7.17,11.91,15.06,16.71,23.22.06.1.11.19.17.29,5.39,9.17,9.7,18.69,12.74,27.95,2.88,8.64,4.04,15.78,4.55,20.66Z"/>
    <line x1="338.48" y1="39.36" x2="338.46" y2="39.36"/>
  </g>
  <line x1="386.9" y1="173.22" x2="386.03" y2="172.91"/>
  <line x1="418.05" y1="163.61" x2="418.04" y2="163.59"/>
</svg>