<?xml version="1.0" encoding="UTF-8"?>
<svg id="tiled_paw" xmlns="http://www.w3.org/2000/svg" version="1.1" viewBox="0 0 512 512">
  <!-- Generator: Adobe Illustrator 29.8.1, SVG Export Plug-In . SVG Version: 2.1.1 Build 2)  -->
  <defs>
    <style>
      .st0 {
        fill: none;
      }

      .st1 {
        fill: #d6d5d9;
      }

      .st2 {
        fill: #422c70;
      }

      .st3 {
        fill: #e6e6e6;
      }

      .st4 {
        fill: #185086;
      }

      .st5 {
        fill: #007094;
      }

      .st6 {
        fill: #008e98;
      }

      .st7 {
        fill: #ccc;
      }

      .st8 {
        fill: #2bb67b;
      }

      .st9 {
        fill: #4a1954;
      }

      .st10 {
        fill: #76c15f;
      }

      .st11 {
        fill: #00a890;
      }

      .st12 {
        fill: #bbd63c;
      }

      .st13 {
        fill: #ccffd9;
      }

      .st14 {
        fill: #fce330;
      }
    </style>
  </defs>
  <path class="st9" d="M426.84,329.29c-4.98,2.28-10.74,3.65-17.31,3.93-3.28.15-7.58-1.08-12.5-3.38l11.74-28.6,18.06,28.03h.01Z"/>
  <path class="st2" d="M446.16,311.14c-4.46,8-10.8,14.36-19.32,18.14l-18.06-28.03,37.38,9.9Z"/>
  <path class="st2" d="M453.44,289.5c-1.34,7.93-3.73,15.29-7.28,21.64l-7.01-17.66,14.29-3.97Z"/>
  <polygon class="st9" points="439.15 293.47 415.25 279.9 436.91 274.18 439.15 293.47"/>
  <polygon class="st2" points="439.15 293.47 408.78 301.24 415.25 279.9 439.15 293.47"/>
  <path class="st9" d="M397.04,329.84h-.03c-6.03-2.81-12.97-7.16-20.13-12.44l8.19-11.4,11.97,23.86h0Z"/>
  <path class="st2" d="M385.07,305.98l-8.19,11.4c-2.52-1.88-5.1-3.89-7.73-6.03-2.83-2.32-5.5-4.62-8.01-6.87l23.91,1.5h.01Z"/>
  <path class="st4" d="M370.15,281.96c-3,7.51-6.01,15.01-9,22.52-3.58-3.23-7.08-6.57-10.38-9.96v-.03l19.37-12.54h.01Z"/>
  <polygon class="st4" points="408.78 301.24 385.07 305.98 388.44 285.03 408.78 301.24"/>
  <polygon class="st2" points="388.44 285.03 385.07 305.98 370.15 281.96 388.44 285.03"/>
  <path class="st2" d="M454.8,275.1v.03l-17.89-.94,17.14-16.09c.62,5.71.89,11.43.76,17.01h0Z"/>
  <path class="st5" d="M454.05,258.09l-25.11-10.78,22.72-3.78c1.04,4.79,1.84,9.67,2.39,14.56h0Z"/>
  <polygon class="st5" points="391.05 265.59 388.44 285.03 370.15 281.96 391.05 265.59"/>
  <path class="st4" d="M350.78,294.5c-5.67-5.82-10.79-11.74-14.86-17.39l9.86-6.67,5,24.06Z"/>
  <path class="st6" d="M345.77,270.44l-9.86,6.67c-4.5-6.2-7.73-12.04-9.06-16.99l18.91,10.32h0Z"/>
  <path class="st10" d="M345.19,255.74l-18.33,4.38c-.54-1.97-.77-3.78-.66-5.44.23-3.46.85-6.24,1.82-8.47l17.18,9.54h0Z"/>
  <path class="st14" d="M346.36,246.2h-18.36c2.59-5.96,7.54-8.32,13.31-9.92l5.04,9.92Z"/>
  <path class="st12" d="M357.85,231.94l-11.48,14.28-5.04-9.92c5.15-1.4,10.98-2.22,16.43-4.42l.11.07h-.01Z"/>
  <polygon class="st12" points="369.63 239.72 366.34 250.24 346.36 246.2 369.63 239.72"/>
  <polygon class="st8" points="366.34 250.24 352.17 260.75 346.36 246.2 366.34 250.24"/>
  <polygon class="st8" points="447.73 229.32 428.93 247.31 428.93 229.32 447.73 229.32"/>
  <path class="st10" d="M447.75,229.3l-.03.03h-18.79l12.95-13.96.2-.2c2.11,4.43,4.01,9.19,5.65,14.14h.01Z"/>
  <polygon class="st11" points="428.93 229.32 428.93 247.31 410.98 234.91 428.93 229.32"/>
  <path class="st14" d="M442.09,215.16l-.2.2-16.35,2.59,7.39-17.52.34-.15c3.23,4.31,6.2,9.33,8.83,14.86h0Z"/>
  <polygon class="st14" points="425.54 217.95 410.98 234.91 418.52 207.13 425.54 217.95"/>
  <path class="st14" d="M369.63,239.72l-11.78-7.78.15-.19c1.34-.54,2.63-1.19,3.92-1.95,1.82-1.08,3.47-2.35,5.02-3.74l2.7,13.67Z"/>
  <path class="st3" d="M357.74,231.87c.08-.04.16-.08.26-.12l-.15.19-.11-.07h0Z"/>
  <polygon class="st8" points="395.01 234.87 369.63 239.72 383.34 229.99 395.01 234.87"/>
  <path class="st12" d="M386.31,219.82l-19.37,6.24c4.47-4.04,7.96-9.25,11.2-14.6l8.19,8.36h-.01Z"/>
  <path class="st14" d="M420.69,188.33l-14.51,13.35-1.11-16.82c5.4-.88,10.66.43,15.62,3.47h0Z"/>
  <path class="st12" d="M406.18,201.68l-15.93-8.35c1.82-1.99,3.81-3.73,6.05-5.08,2.96-1.82,5.88-2.91,8.77-3.39l1.11,16.82Z"/>
  <path class="st12" d="M392.19,202.82l-14.06,8.62c3.78-6.2,7.27-12.59,11.63-17.54l2.43,8.92Z"/>
  <path class="st14" d="M433.27,200.3l-.34.15-14.42,6.7,2.2-18.82c4.47,2.72,8.7,6.82,12.55,11.97h.01Z"/>
  <path class="st9" d="M197.27,480.23c-9.96,3.16-19.87.65-28.94-5.12,7.86-1.63,15.74-3.25,23.6-4.88l5.34,10Z"/>
  <polygon class="st9" points="212.81 467.48 199.58 469.22 191.95 470.22 203.38 450.21 212.81 467.48"/>
  <path class="st4" d="M212.81,467.48c-3.5,5.07-7.4,9.71-13.79,12.16-.54.2-1.07.39-1.61.54-.04.04-.08.04-.12.04l-5.34-10,7.63-1,13.23-1.74Z"/>
  <path class="st4" d="M228.13,450.21c-7.16,4.04-10.93,10.97-15.32,17.26l-9.44-17.26h24.75Z"/>
  <path class="st9" d="M176.13,443.12c-2.59,10.66-5.19,21.31-7.78,31.98-3.23-2.17-6.94-5-10.74-8.65-3.74-3.58-6.68-7.12-8.96-10.21l-.03-.04-.42-1.78,27.91-11.31h.01Z"/>
  <path class="st2" d="M261.36,448.44l-.23.84c-10.25-1.27-24.05-2.39-27.9-1.23-.89.27-1.76.58-2.58.94l-.07-.08,18.14-25.7,12.62,25.24h.01Z"/>
  <polygon class="st9" points="270.97 413.84 261.36 448.44 248.74 423.19 270.97 413.84"/>
  <polygon class="st4" points="270.97 413.84 248.74 423.19 261.86 403.63 270.97 413.84"/>
  <path class="st9" d="M287.79,422.33l-.85,35.41c-4.66-3.08-9.69-5.53-15.32-6.82-1.88-.43-5.48-1-9.79-1.55l-.26-.53,26.22-26.52h0Z"/>
  <path class="st2" d="M303.08,471.14c-4.98-4.62-10.09-9.33-15.71-13.12l12.16-9.69,3.55,22.82Z"/>
  <path class="st2" d="M330.48,489.55c-10.29-2.47-18.64-10.28-27.3-18.33l24.51-16.47,2.81,34.8h-.01Z"/>
  <path class="st2" d="M365.25,477.84c-3.35,3.32-6.9,6.03-10.63,7.89-9.35,4.7-17.14,5.48-24.05,3.85l33.27-27.8,1.4,16.08h.01Z"/>
  <path class="st9" d="M380.57,455.22c-4.15,8.83-9.38,16.72-15.32,22.63l-1.4-16.08,16.72-6.55h0Z"/>
  <path class="st2" d="M390.01,422.03c-1.19,10.98-4.46,22.41-9.19,32.64l-1.22-34.34,10.4,1.69h.01Z"/>
  <path class="st4" d="M390.01,422.03l-10.4-1.69,8.69-23.71.15-.03c2.18,7.55,2.58,16.32,1.57,25.42h-.01Z"/>
  <path class="st6" d="M368.29,371.38l-1.76,28.59-20.17-16.67,21.35-12.27c.2.11.39.23.58.35h0Z"/>
  <path class="st11" d="M367.71,371.03l-21.35,12.27,9.75-18.56c4.05,1.95,7.96,4,11.59,6.3h.01Z"/>
  <path class="st10" d="M356.12,364.73l-9.75,18.56-6.13-25.24.31-.46c5.25,2.43,10.52,4.7,15.56,7.13h0Z"/>
  <polygon class="st12" points="346.36 383.3 319.47 394.55 330.96 371.15 346.36 383.3"/>
  <path class="st12" d="M340.23,358.06l-9.27,13.1-11.9-25.38h.03c6.55,4.66,13.75,8.28,20.99,11.62l.16.66Z"/>
  <polygon class="st10" points="330.96 371.15 309.78 380.03 299.42 358.56 330.96 371.15"/>
  <polygon class="st2" points="248.59 402.52 248.88 376.56 260.67 387.05 248.59 402.52"/>
  <path class="st14" d="M306.08,333.76c-7.63-1.99-15.25-3.93-22.9-5.9l11.94-11.62c2.78,5.17,5.54,10.09,8.47,14.25.8,1.13,1.61,2.22,2.47,3.27h.01Z"/>
  <path class="st12" d="M319.05,345.77l-19.63,12.78c2.22-8.27,4.43-16.53,6.66-24.79,1.74,2.11,3.86,4.45,6.45,6.81,2.28,2.07,4.49,3.8,6.52,5.21h0Z"/>
  <path class="st10" d="M306.08,333.76c-2.22,8.27-4.43,16.53-6.66,24.79l-16.99-9.04c7.88-5.25,15.77-10.51,23.64-15.75Z"/>
  <path class="st11" d="M306.08,333.76c-7.88,5.25-15.77,10.51-23.64,15.75l.76-21.66c7.63,1.97,15.26,3.93,22.9,5.9h-.01Z"/>
  <path class="st10" d="M295.13,316.25l-25.03-7.23,15.21-11.13h.03c3.42,6.03,6.59,12.36,9.79,18.36h0Z"/>
  <path class="st14" d="M285.31,297.89l-20.99-4.42,9.69-12.2c4.16,4.73,7.85,10.51,11.31,16.62h-.01Z"/>
  <path class="st10" d="M274.02,281.27l-9.69,12.2-6.13-22.99c6.05,1.59,11.24,5.53,15.82,10.8h0Z"/>
  <path class="st14" d="M258.2,270.48l-17.09,19.63-7.51-14.52c9.67-5.73,17.7-6.94,24.61-5.11h0Z"/>
  <path class="st12" d="M241.1,290.11l-20.24-3.88c3.46-3.96,7.47-7.5,12.31-10.4.15-.08.27-.16.42-.26l7.51,14.52h0Z"/>
  <polygon class="st14" points="264.33 293.47 241.1 305.98 241.1 290.11 264.33 293.47"/>
  <path class="st14" d="M223.32,309.71l-19.9,9.38h-.03v-.03c2.41-6.26,4.88-12.43,7.86-18.25l12.05,8.89h.01Z"/>
  <path class="st10" d="M209.69,329.42l-14.4,9.86c2.97-6.51,5.48-13.37,8.09-20.2h.03l6.28,10.34h0Z"/>
  <path class="st8" d="M202.91,348.63l-18.83,9.29-.04-.07c.2-.31.43-.58.66-.88,4.31-5.27,7.66-11.31,10.57-17.66l7.63,9.31h0Z"/>
  <path class="st11" d="M197.34,380.03l-31.44-3.7c.8.04,1.57-.03,2.35-.26,8.92-2.54,10.98-11.74,15.78-18.21l.04.07,13.27,22.1h0Z"/>
  <path class="st10" d="M158.58,387.35l-24.86-7.74-.03-.07c2.32-5.35,5.63-9.67,10.13-11.81,3.28-1.57,7.39,1.13,11.67,3.92l3.08,15.7h.01Z"/>
  <path class="st10" d="M140.8,403.06l-8.12,23.87c-1.84-5.21-3-10.13-3.38-14.37-.34-3.77-.39-8-.11-12.36l11.59,2.86h.01Z"/>
  <path class="st11" d="M140.8,403.06l-11.59-2.86c.46-7.13,1.84-14.56,4.5-20.66l.03.07,7.08,23.45h-.01Z"/>
  <path class="st4" d="M148.63,456.2c-.38-.5-.76-.99-1.13-1.49-3.15-4.28-5.96-8.83-8.42-13.39l4.19-7.7,4.93,20.8.42,1.78h0Z"/>
  <path class="st12" d="M143.27,433.62l-4.19,7.7c-2.59-4.84-4.77-9.71-6.39-14.36l10.57,6.66Z"/>
  <path class="st12" d="M158.58,387.35l-3.08-15.7c3.12,2.03,6.34,4.11,9.44,4.58l-6.36,11.12h0Z"/>
  <polygon class="st5" points="222.06 400.87 181.91 394.66 197.34 380.03 222.06 400.87"/>
  <polygon class="st2" points="222.06 400.87 197.34 380.03 214.06 367.52 222.06 400.87"/>
  <path class="st12" d="M223.32,309.71l-12.05-8.89c2.54-4.93,5.44-9.61,8.96-13.81l3.09,22.71Z"/>
  <polygon class="st4" points="248.88 376.56 214.06 367.52 244.89 352.74 248.88 376.56"/>
  <polygon class="st2" points="264.62 346.3 248.88 376.56 244.89 352.74 264.62 346.3"/>
  <polygon class="st6" points="282.42 349.51 264.62 346.3 267.13 331.19 282.42 349.51"/>
  <path class="st7" d="M340.54,357.59l-.31.46-.16-.66c.16.08.31.15.49.2h-.01Z"/>
  <path class="st8" d="M379.14,380.26l-12.59,19.71,1.76-28.59h.03c4,2.58,7.66,5.46,10.82,8.87h-.01Z"/>
  <path class="st4" d="M388.38,396.37v.03l-.08.23-21.76,3.35,12.59-19.71c1.9,2.01,3.62,4.2,5.12,6.63,1.78,2.85,3.15,6.03,4.12,9.48h0Z"/>
  <path class="st13" d="M388.44,396.6l-.15.03.08-.23c.04.08.07.12.07.2h0Z"/>
  <g>
    <path class="st2" d="M116.34,345.94c-7.7,1.13-16.21-.35-25.8-5.63l11.77-20.9,14.04,26.53h-.01Z"/>
    <path class="st9" d="M136.47,336.49c-6.13,4.89-12.77,8.36-20.13,9.46l-14.04-26.53,34.18,17.08h0Z"/>
    <path class="st2" d="M158.31,312.64c-6.81,8.88-13.92,17.54-21.85,23.83l13.96-31.72,7.89,7.89h0Z"/>
    <polygon class="st4" points="150.42 304.75 136.47 336.49 102.3 319.41 150.42 304.75"/>
    <path class="st9" d="M167.04,301.12c-1.18,1.56-2.36,3.12-3.55,4.68-1.74,2.29-3.46,4.57-5.18,6.85l-7.89-7.89c5.54-1.21,11.08-2.43,16.62-3.63h0Z"/>
    <path class="st5" d="M181.52,283.87c-1.3,1.44-2.6,2.9-3.92,4.39-3.78,4.32-7.29,8.62-10.56,12.85-3.44-8.55-6.89-17.11-10.34-25.66,8.27,2.81,16.54,5.61,24.82,8.42Z"/>
    <path class="st6" d="M183.91,260.81l-2.07,22.71c-.11.11-.2.23-.31.35-8.27-2.81-16.54-5.61-24.82-8.42l27.21-14.65h0Z"/>
    <path class="st11" d="M195.53,258.89c-.46,6.32-4.73,14.17-13.69,24.63l2.07-22.71,11.62-1.93h0Z"/>
    <path class="st8" d="M190.81,247l-6.9,13.81c-2.09-7.48-4.18-14.95-6.26-22.44,5.63,2.74,10.11,5.5,13.16,8.62h0Z"/>
    <polygon class="st11" points="183.91 260.81 156.7 275.46 156.7 260.81 183.91 260.81"/>
    <polygon class="st0" points="142.06 265 123.23 258.71 139.96 237.8 142.06 265"/>
    <path class="st9" d="M66.72,281.73h-9.69c-.81-7.16-.96-14.4-.54-21.41l.07-.08.15.03,10.02,21.47h0Z"/>
    <path class="st9" d="M81.37,298.47l-18.55,8.12c-1.57-4.2-2.85-8.59-3.85-13.1,0,0,22.4,4.98,22.4,4.98Z"/>
    <path class="st4" d="M81.37,298.47l-8.73,26.16-.12.03c-4.01-5.38-7.23-11.48-9.69-18.06l18.55-8.12h0Z"/>
    <path class="st9" d="M102.3,319.41l-11.77,20.9c-1.08-.58-2.2-1.26-3.32-1.95-5.73-3.55-10.57-8.19-14.6-13.58l.04-.15,29.65-5.23h0Z"/>
    <path class="st11" d="M70.91,241.98l-14.28,18.17-.12-.27v-.03c.53-8.2,1.84-16.08,3.82-23.17,0,0,10.57,5.3,10.57,5.3Z"/>
    <path class="st12" d="M119.5,210.78l-.11.12-15.01-4.5c1.69-2.26,3.38-4.51,5.07-6.78,1.78,2.97,3.54,5.71,5.44,7.4,1.49,1.31,3.01,2.55,4.61,3.74h0Z"/>
    <polygon class="st14" points="119.39 210.9 106.49 225.24 104.38 206.4 119.39 210.9"/>
    <path class="st14" d="M73,223.14l-12.31,12.31c.2-.73.43-1.45.66-2.16,1.23-3.81,3.05-8.89,5.34-14.36,2.1,1.4,4.2,2.81,6.3,4.2h0Z"/>
    <path class="st10" d="M109.2,199.19c.07.11.12.22.12.22.04.07.08.15.12.22-5.18.87-10.36,1.74-15.52,2.59,2.41-4.81,4.81-9.61,7.23-14.42,4.61,6.47,7.96,11.22,8.05,11.39h0Z"/>
    <path class="st14" d="M101.14,187.8c-3.8,2.02-7.61,4.03-11.4,6.05l-1.11-6.7c2.85-1.57,5.8-2.16,8.85-1.42,1.3.31,2.51,1.04,3.66,2.07h0Z"/>
    <path class="st12" d="M89.74,193.84l-11.48,3.46c3.19-4.47,6.67-8.12,10.38-10.15l1.11,6.7h-.01Z"/>
    <path class="st12" d="M83.47,208.5l-13.39,2.97c2.35-4.88,5.02-9.71,7.96-13.85l5.44,10.89Z"/>
    <polygon class="st0" points="93.93 202.22 83.47 208.5 89.74 193.84 93.93 202.22"/>
    <path class="st14" d="M141.18,223.1v.04h-20.05l-1.36-12.16c6.55,4.88,13.94,8.77,21.41,12.12Z"/>
    <path class="st12" d="M121.13,223.14l-14.65,2.09,12.91-14.33.11-.12c.08.07.19.15.27.2v.04l1.36,12.12h.01Z"/>
    <path class="st12" d="M157.38,229.76l-17.41,8.04,1.22-14.65h.11c2.81,1.27,5.63,2.45,8.43,3.55,2.66,1.07,5.19,2.07,7.66,3.05h-.01Z"/>
    <polygon class="st0" points="156.7 275.46 157.03 276.21 156.58 276.07 155.93 275.88 129.51 290.11 142.06 265 156.7 275.46"/>
    <path class="st6" d="M156.7,260.81l1.69-30.65c3.28,1.26,6.66,2.62,10.1,4.11,3.17,1.36,6.22,2.74,9.15,4.12-6.98,7.48-13.96,14.95-20.94,22.44h0Z"/>
    <polygon class="st2" points="102.3 319.41 72.65 324.64 81.37 298.47 102.3 319.41"/>
    <polygon class="st4" points="102.3 290.11 102.3 319.41 81.37 298.47 102.3 290.11"/>
    <polygon class="st9" points="129.51 290.11 102.3 319.41 102.3 290.11 129.51 290.11"/>
    <polygon class="st2" points="150.42 304.75 102.3 319.41 129.51 290.11 150.42 304.75"/>
    <path class="st5" d="M156.7,275.46c-2.09,9.76-4.19,19.54-6.28,29.3l-20.93-14.65c9.07-4.88,18.14-9.76,27.21-14.65h0Z"/>
    <path class="st4" d="M167.04,301.12c-5.54,1.21-11.08,2.43-16.62,3.63,2.09-9.76,4.19-19.54,6.28-29.3,3.44,8.55,6.89,17.11,10.34,25.66h0Z"/>
    <polygon class="st4" points="142.06 265 129.51 290.11 123.23 258.71 142.06 265"/>
    <polygon class="st9" points="102.3 290.11 81.37 298.47 66.72 281.73 102.3 290.11"/>
    <path class="st2" d="M66.72,281.73l-7.82,11.31c-.81-3.73-1.42-7.5-1.86-11.31h9.69-.01Z"/>
    <path class="st4" d="M81.37,298.47l-22.4-4.98c-.04-.15-.07-.3-.08-.43v-.03l7.82-11.31,14.65,16.74Z"/>
    <line class="st0" x1="155.93" y1="275.88" x2="154.61" y2="275.46"/>
    <path class="st6" d="M195.53,258.86v.03l-11.62,1.93,6.9-13.81c3.39,3.42,5.08,7.23,4.7,11.86h.01Z"/>
    <path class="st10" d="M183.91,260.81h-27.21c6.98-7.48,13.96-14.95,20.94-22.44,2.09,7.48,4.18,14.95,6.26,22.44h0Z"/>
    <path class="st10" d="M158.39,230.15l-1.69,30.65-16.74-23.02,17.41-8.04h.03c.34.12.66.27,1,.39h0Z"/>
    <polygon class="st8" points="156.7 260.81 156.7 275.46 142.06 265 156.7 260.81"/>
    <polygon class="st6" points="156.7 260.81 142.06 265 139.96 237.8 156.7 260.81"/>
    <polygon class="st10" points="141.18 223.14 139.96 237.8 121.13 223.14 141.18 223.14"/>
    <polygon class="st12" points="139.96 237.8 112.76 239.88 121.13 223.14 139.96 237.8"/>
    <polygon class="st11" points="139.96 237.8 123.23 258.71 112.76 239.88 139.96 237.8"/>
    <polygon class="st8" points="121.13 223.14 112.76 239.88 111.88 239.61 106.49 225.24 121.13 223.14"/>
    <polygon class="st6" points="123.23 258.71 96.02 265 112.76 239.88 123.23 258.71"/>
    <path class="st8" d="M96.02,265l-6.28-14.65c7.67-3.48,15.35-6.98,23.02-10.47-5.59,8.36-11.16,16.74-16.74,25.11h0Z"/>
    <path class="st6" d="M112.76,239.88c-7.67,3.48-15.35,6.98-23.02,10.47l2.09-16.74c6.98,2.09,13.95,4.19,20.93,6.28Z"/>
    <polygon class="st4" points="123.23 258.71 111.35 276.51 96.02 265 123.23 258.71"/>
    <polygon class="st5" points="129.51 290.11 111.35 276.51 123.23 258.71 129.51 290.11"/>
    <polygon class="st5" points="111.35 276.51 102.3 290.11 96.02 265 111.35 276.51"/>
    <polygon class="st2" points="129.51 290.11 102.3 290.11 111.35 276.51 129.51 290.11"/>
    <polygon class="st2" points="102.3 290.11 66.72 281.73 77.19 265 102.3 290.11"/>
    <polygon class="st4" points="77.19 265 66.72 281.73 56.69 260.27 77.19 265"/>
    <polygon class="st4" points="102.3 290.11 77.19 265 96.02 265 102.3 290.11"/>
    <polygon class="st5" points="96.02 265 77.19 265 89.74 250.35 96.02 265"/>
    <polygon class="st6" points="89.74 250.35 77.19 265 70.91 241.98 89.74 250.35"/>
    <polygon class="st5" points="77.19 265 56.69 260.27 56.64 260.14 70.91 241.98 77.19 265"/>
    <polygon class="st12" points="106.49 225.24 89.74 218.97 104.38 206.4 106.49 225.24"/>
    <path class="st11" d="M112.76,239.88c-6.98-2.09-13.95-4.19-20.93-6.28l14.65-8.36c2.09,4.88,4.19,9.76,6.28,14.65h0Z"/>
    <polygon class="st6" points="106.49 225.24 91.83 233.61 89.74 218.97 106.49 225.24"/>
    <polygon class="st5" points="91.83 233.61 89.74 250.35 70.91 241.98 91.83 233.61"/>
    <path class="st10" d="M73,223.14c-.69,6.28-1.4,12.55-2.09,18.83l-10.57-5.3c.12-.42.23-.84.35-1.23l12.31-12.31h0Z"/>
    <path class="st11" d="M91.83,233.61l-20.93,8.36c.69-6.28,1.4-12.55,2.09-18.83l18.83,10.47h.01Z"/>
    <path class="st10" d="M73,223.14c-2.1-1.4-4.2-2.81-6.3-4.2.94-2.22,1.95-4.47,3.01-6.74,1.1,3.65,2.2,7.29,3.28,10.94h.01Z"/>
    <path class="st14" d="M83.47,208.5l-10.47,14.65c-1.1-3.65-2.2-7.29-3.28-10.94.12-.26.23-.49.35-.73l13.39-2.97h0Z"/>
    <polygon class="st8" points="91.83 233.61 73 223.14 89.74 218.97 91.83 233.61"/>
    <polygon class="st12" points="89.74 218.97 73 223.14 83.47 208.5 89.74 218.97"/>
    <path class="st14" d="M89.74,193.84l-6.28,14.65-5.44-10.89c.08-.11.15-.2.23-.31l11.48-3.46h0Z"/>
    <polygon class="st14" points="93.93 202.22 89.74 218.97 83.47 208.5 93.93 202.22"/>
    <polygon class="st10" points="104.38 206.4 89.74 218.97 93.93 202.22 104.38 206.4"/>
    <path class="st14" d="M109.46,199.62c-1.69,2.26-3.38,4.51-5.07,6.78l-10.47-4.19c5.18-.87,10.36-1.74,15.52-2.59h.01Z"/>
    <path class="st12" d="M101.14,187.8c-2.41,4.81-4.81,9.61-7.23,14.42l-4.19-8.36c3.8-2.02,7.61-4.03,11.4-6.05h.01Z"/>
    <path class="st2" d="M142.06,265c4.88,3.48,9.76,6.98,14.65,10.47-9.07,4.88-18.14,9.76-27.21,14.65,4.19-8.36,8.36-16.74,12.55-25.11h0Z"/>
    <path class="st8" d="M139.96,237.8c.69,9.07,1.4,18.14,2.09,27.21l-18.83-6.28c5.59-6.98,11.16-13.95,16.74-20.93Z"/>
    <path class="st10" d="M89.74,193.84c1.4,2.79,2.79,5.59,4.19,8.36-3.48,2.09-6.98,4.19-10.47,6.28,2.09-4.88,4.19-9.76,6.28-14.65h0Z"/>
  </g>
  <g>
    <path class="st8" d="M232.52,115.47l-8.43,4.28,5.96-23.78.96.65c.88,6.55,1.36,12.91,1.5,18.83h0Z"/>
    <path class="st6" d="M232.37,126.01l-8.28-6.24,8.43-4.28c.08,3.73.04,7.27-.15,10.52h0Z"/>
    <path class="st9" d="M232.37,126.01v.08c-.27,5.12-.35,11.89-.5,19.32l-.38-.04v-.03l-7.4-25.57,8.28,6.24Z"/>
    <g>
      <path class="st9" d="M223.79,202.26c-1.04,1.76-.99,6.81-4.66,9.86-1.3,1.07-5.44,3.97-15.01,2.11-5.02-.99-9.35-2.62-13.29-4.73l32.96-7.24Z"/>
      <path class="st9" d="M230.61,172.87c-1.03,11.62-2.89,22.29-6.51,28.82l-33.21-21.64,38.31-6.93,1.4-.26h.01Z"/>
      <path class="st4" d="M190.81,180.1v29.38c-8.89-4.73-15.66-11.77-23.25-18.5l23.25-10.89h0Z"/>
      <path class="st4" d="M231.87,145.41c-.19,8.73-.46,18.4-1.26,27.48l-1.4.26-10.51-8.7,12.78-19.06.38.04h0Z"/>
      <polygon class="st2" points="231.49 145.37 218.71 164.43 190.81 141.26 231.49 145.37"/>
      <polygon class="st9" points="218.71 164.43 190.9 180.06 190.88 180.06 190.81 180.02 190.81 141.26 218.71 164.43"/>
      <path class="st9" d="M167.86,189.64v.03l-.65,1.03c-6.24-5.48-13.05-10.7-22.1-14.21l17.01-14.19,5.73,27.36h0Z"/>
      <path class="st5" d="M145.11,176.48c-12.17-4.73-21.24-1.42-29.26-9.23l9.52-9.39,19.74,18.63h0Z"/>
      <polygon class="st5" points="190.81 141.26 162.12 162.29 150.57 134.44 190.81 141.26"/>
      <path class="st6" d="M230.6,93.87c.14.92.28,1.86.42,2.78l-18.97-12.82,16.13-2.55c.99,4.2,1.78,8.43,2.41,12.59h0Z"/>
      <polygon class="st8" points="212.05 83.82 194.26 68.16 209.96 64.84 212.05 83.82"/>
      <path class="st14" d="M228.18,81.27l-18.22-16.43,12.05-3.27c2.55,6.28,4.61,12.96,6.17,19.7Z"/>
      <path class="st14" d="M221.99,61.55l-14.55-16.35,2.59-4.35c4.85,5.86,8.78,12.97,11.94,20.7h.01Z"/>
      <polygon class="st14" points="209.96 64.84 195.42 51.99 207.46 45.21 209.96 64.84"/>
      <polygon class="st10" points="209.96 64.84 194.26 68.16 195.42 51.99 209.96 64.84"/>
      <polygon class="st11" points="200.03 109.7 177.44 67.19 194.26 68.16 200.03 109.7"/>
      <polygon class="st12" points="178.57 36.9 176.71 55 170.12 39.82 178.57 36.9"/>
      <path class="st12" d="M164.66,26.56c-4.16,4.74-8.35,9.46-12.51,14.21l-1.4-8.04c4.42-2.72,9.08-4.81,13.92-6.17h-.01Z"/>
      <path class="st14" d="M181.13,24.85l-12.43,3.73c-1.34-.66-2.7-1.34-4.04-2.01.76-.22,1.67-.46,2.7-.69,0,0,1.22-.27,2.48-.49,4-.66,7.74-.84,11.28-.54h.01Z"/>
      <path class="st10" d="M152.14,40.78l-12.63.53c3.55-3.28,7.31-6.15,11.24-8.55l1.4,8.04h0Z"/>
      <path class="st14" d="M141.14,45.94l-14,9.44c3.77-5.23,7.89-9.96,12.36-14.09l1.63,4.65h.01Z"/>
      <polygon class="st14" points="154.35 56.61 138.32 70.05 127.08 55.42 127.09 55.42 154.35 56.61"/>
      <polygon class="st12" points="154.96 63.92 138.32 70.05 154.35 56.61 154.96 63.92"/>
      <polygon class="st10" points="154.96 63.92 148.53 80.99 138.32 70.05 154.96 63.92"/>
      <path class="st10" d="M123.39,98.38l-19.13,13.81c.81-5.54,2.03-11.17,3.62-16.74l15.51,2.93Z"/>
      <path class="st14" d="M123.39,98.38l-15.51-2.93c1.23-4.35,2.72-8.66,4.42-12.91l11.09,15.85h0Z"/>
      <path class="st10" d="M126.32,76l-14.02,6.55c1.5-3.81,3.2-7.55,5.07-11.2l8.96,4.65h-.01Z"/>
      <path class="st14" d="M127.08,55.42l-.76,20.57-8.96-4.65c2.86-5.63,6.13-10.98,9.71-15.93h.01Z"/>
      <polygon class="st11" points="137.29 90.45 123.39 98.38 126.32 76 137.29 90.45"/>
      <polygon class="st10" points="138.32 70.05 137.29 90.45 126.32 76 138.32 70.05"/>
      <path class="st4" d="M126.21,132.56v.03l-22.83,1.65c-.49-6.55-.26-13.46.66-20.47l22.16,18.79h0Z"/>
      <path class="st11" d="M126.21,132.57l-10.36,34.68c-2.18-2.11-4.28-5.07-6.36-9.2-3.47-6.94-5.44-15.09-6.11-23.82l22.83-1.65Z"/>
      <polygon class="st8" points="126.21 132.56 125.38 157.85 115.85 167.25 126.21 132.56"/>
      <polygon class="st11" points="150.57 134.44 125.38 157.85 126.21 132.56 150.57 134.44"/>
      <polygon class="st6" points="150.57 134.44 126.21 132.56 139.42 119.77 150.57 134.44"/>
      <polygon class="st10" points="177.44 67.19 161.39 82.55 148.53 80.99 177.44 67.19"/>
      <polygon class="st10" points="176.71 55 154.96 63.92 154.35 56.61 176.71 55"/>
      <path class="st12" d="M196.11,29.17l-2.16,3.28-12.01-7.55c5.19.53,9.9,1.99,14.17,4.27Z"/>
      <path class="st14" d="M210.04,40.86l-16.09-8.39,2.16-3.28c5.3,2.81,9.94,6.82,13.94,11.67Z"/>
      <path class="st2" d="M224.1,201.69c-.11.19-.2.38-.31.57l-32.96,7.24h-.03v-29.4l.07-.04h.03l33.21,21.64h-.01Z"/>
      <path class="st2" d="M190.81,180.02v.08l-23.25,10.89c-.12-.08-.26-.19-.35-.3l.65-1.03v-.03l10.97-17.43,11.98,7.81h0Z"/>
      <polygon class="st4" points="190.81 141.26 190.81 180.02 178.82 172.21 190.81 141.26"/>
      <polygon class="st2" points="190.81 141.26 178.82 172.21 162.12 162.29 190.81 141.26"/>
      <polygon class="st4" points="178.82 172.21 167.86 189.64 162.12 162.29 178.82 172.21"/>
      <polygon class="st8" points="230.05 95.99 224.09 119.77 212.05 83.82 230.05 95.99"/>
      <polygon class="st5" points="224.09 119.77 190.81 141.26 200.03 109.7 224.09 119.77"/>
      <polygon class="st6" points="200.03 109.7 190.81 141.26 170.81 106.26 200.03 109.7"/>
      <polygon class="st11" points="224.09 119.77 200.03 109.7 212.05 83.82 224.09 119.77"/>
      <polygon class="st10" points="212.05 83.82 200.03 109.7 194.26 68.16 212.05 83.82"/>
      <polygon class="st8" points="200.03 109.7 170.81 106.26 177.44 67.19 200.03 109.7"/>
      <polygon class="st2" points="229.21 173.13 190.9 180.06 218.71 164.43 229.21 173.13"/>
      <polygon class="st4" points="231.49 145.34 231.49 145.37 190.81 141.26 224.09 119.77 231.49 145.34"/>
      <polygon class="st11" points="177.44 67.19 170.81 106.26 161.39 82.55 177.44 67.19"/>
      <polygon class="st12" points="228.18 81.27 212.05 83.82 209.96 64.84 228.18 81.27"/>
      <polygon class="st2" points="162.12 162.29 145.11 176.48 150.57 134.44 162.12 162.29"/>
      <polygon class="st4" points="150.57 134.44 145.11 176.48 125.38 157.85 150.57 134.44"/>
      <polygon class="st4" points="190.81 141.26 150.57 134.44 170.81 106.26 190.81 141.26"/>
      <polygon class="st11" points="170.81 106.26 150.57 134.44 139.42 119.77 170.81 106.26"/>
      <polygon class="st6" points="170.81 106.26 139.42 119.77 142.9 100.85 170.81 106.26"/>
      <polygon class="st11" points="142.9 100.85 139.42 119.77 123.39 98.38 142.9 100.85"/>
      <polygon class="st5" points="139.42 119.77 126.21 132.56 123.39 98.38 139.42 119.77"/>
      <path class="st6" d="M126.21,132.56l-22.16-18.79c.07-.53.15-1.03.2-1.55v-.03l19.13-13.81,2.82,34.18h.01Z"/>
      <polygon class="st11" points="148.53 80.99 137.29 90.45 138.32 70.05 148.53 80.99"/>
      <polygon class="st5" points="161.39 82.55 142.9 100.85 148.53 80.99 161.39 82.55"/>
      <polygon class="st6" points="148.53 80.99 142.9 100.85 137.29 90.45 148.53 80.99"/>
      <polygon class="st5" points="142.9 100.85 123.39 98.38 137.29 90.45 142.9 100.85"/>
      <polygon class="st12" points="126.32 76 123.39 98.38 112.3 82.55 126.32 76"/>
      <polygon class="st8" points="170.81 106.26 142.9 100.85 161.39 82.55 170.81 106.26"/>
      <polygon class="st12" points="138.32 70.05 126.32 76 127.08 55.42 138.32 70.05"/>
      <polygon class="st8" points="177.44 67.19 148.53 80.99 154.96 63.92 177.44 67.19"/>
      <polygon class="st12" points="222.02 61.57 209.96 64.84 207.46 45.21 221.99 61.55 222.02 61.57"/>
      <polygon class="st10" points="207.46 45.21 195.42 51.99 193.95 32.47 207.46 45.21"/>
      <polygon class="st12" points="210.04 40.86 207.46 45.21 193.95 32.47 210.04 40.86"/>
      <polygon class="st14" points="195.42 51.99 194.26 68.16 176.71 55 195.42 51.99"/>
      <polygon class="st10" points="195.42 51.99 176.71 55 178.57 36.9 195.42 51.99"/>
      <polygon class="st12" points="195.42 51.99 178.57 36.9 193.95 32.47 195.42 51.99"/>
      <path class="st14" d="M193.95,32.47l-15.39,4.43,3-12.04c.12.03.26.03.38.04l12.01,7.55h0Z"/>
      <polygon class="st14" points="178.57 36.9 170.12 39.82 168.7 28.58 178.57 36.9"/>
      <path class="st12" d="M181.56,24.86l-3,12.04-9.88-8.32,12.43-3.73h.03c.15,0,.3,0,.42.03h0Z"/>
      <path class="st12" d="M170.12,39.82c-1.82-4.42-3.65-8.83-5.46-13.24,1.34.66,2.7,1.34,4.04,2.01,0,0,1.42,11.24,1.42,11.24Z"/>
      <polygon class="st10" points="194.26 68.16 177.44 67.19 176.71 55 194.26 68.16"/>
      <polygon class="st12" points="177.44 67.19 154.96 63.92 176.71 55 177.44 67.19"/>
      <polygon class="st14" points="176.71 55 154.35 56.61 170.12 39.82 176.71 55"/>
      <polygon class="st12" points="170.12 39.82 154.35 56.61 152.14 40.78 170.12 39.82"/>
      <path class="st14" d="M170.12,39.82l-17.98.96c4.18-4.73,8.34-9.48,12.51-14.21,1.82,4.42,3.65,8.83,5.46,13.24Z"/>
      <polygon class="st14" points="154.35 56.61 141.14 45.94 152.14 40.78 154.35 56.61"/>
      <polygon class="st12" points="154.35 56.61 127.09 55.42 127.13 55.38 141.14 45.94 154.35 56.61"/>
      <polygon class="st12" points="152.14 40.78 141.14 45.94 139.51 41.29 152.14 40.78"/>
    </g>
  </g>
  <polygon class="st2" points="176.13 443.12 148.21 454.42 143.27 433.62 176.13 443.12"/>
  <path class="st2" d="M230.6,448.9l-.08.15h-.03c-.84.34-1.61.73-2.36,1.17h-24.75l19.55-14.14,7.69,12.82h-.01Z"/>
  <polygon class="st5" points="222.91 436.07 203.38 450.21 201.99 423.6 222.91 436.07"/>
  <polygon class="st2" points="248.74 423.19 222.91 436.07 231.33 416.31 248.74 423.19"/>
  <polygon class="st9" points="248.74 423.19 230.6 448.9 222.91 436.07 248.74 423.19"/>
  <path class="st2" d="M191.95,470.22c-7.86,1.63-15.74,3.25-23.6,4.88,2.59-10.66,5.19-21.31,7.78-31.98l15.82,27.1Z"/>
  <polygon class="st9" points="203.38 450.21 176.13 443.12 201.99 423.6 203.38 450.21"/>
  <polygon class="st4" points="203.38 450.21 191.95 470.22 176.13 443.12 203.38 450.21"/>
  <polygon class="st11" points="287.79 422.33 270.97 413.84 282.8 391.92 287.79 422.33"/>
  <polygon class="st5" points="287.79 422.33 261.56 448.83 261.36 448.44 270.97 413.84 287.79 422.33"/>
  <polygon class="st8" points="311.27 424.88 287.79 422.33 304.59 405.39 311.27 424.88"/>
  <polygon class="st5" points="311.27 424.88 299.53 448.33 287.79 422.33 311.27 424.88"/>
  <path class="st4" d="M299.53,448.33l-12.16,9.69c-.15-.11-.3-.19-.43-.3l.85-35.41,11.74,26.02Z"/>
  <polygon class="st9" points="327.68 454.75 303.16 471.23 303.08 471.14 299.53 448.33 327.68 454.75"/>
  <polygon class="st4" points="327.68 454.75 299.53 448.33 311.27 424.88 327.68 454.75"/>
  <polygon class="st9" points="388.3 396.62 379.61 420.33 366.53 399.97 388.3 396.62"/>
  <polygon class="st2" points="334.26 421.5 327.68 454.75 311.27 424.88 334.26 421.5"/>
  <polygon class="st5" points="353.35 433.35 327.68 454.75 334.26 421.5 353.35 433.35"/>
  <polygon class="st4" points="363.86 461.76 327.68 454.75 353.35 433.35 363.86 461.76"/>
  <path class="st9" d="M363.86,461.76l-33.27,27.8s-.07-.03-.11-.03l-2.81-34.8,36.18,7.01h0Z"/>
  <polygon class="st9" points="379.61 420.33 363.86 461.76 353.35 433.35 379.61 420.33"/>
  <path class="st4" d="M380.83,454.67v.08c-.08.16-.16.27-.26.46l-16.72,6.55,15.75-41.43,1.22,34.34h0Z"/>
  <polygon class="st5" points="379.61 420.33 353.35 433.35 353.83 412.44 379.61 420.33"/>
  <polygon class="st2" points="231.33 416.31 201.99 423.6 222.06 400.87 231.33 416.31"/>
  <polygon class="st9" points="231.33 416.31 222.91 436.07 201.99 423.6 231.33 416.31"/>
  <polygon class="st9" points="176.13 443.12 143.27 433.62 165.08 407.06 176.13 443.12"/>
  <polygon class="st6" points="165.08 407.06 143.27 433.62 140.8 403.06 165.08 407.06"/>
  <polygon class="st8" points="143.27 433.62 132.7 426.96 132.68 426.96 132.68 426.95 140.8 403.06 143.27 433.62"/>
  <polygon class="st11" points="165.08 407.06 140.8 403.06 158.58 387.35 165.08 407.06"/>
  <polygon class="st12" points="158.58 387.35 140.8 403.06 133.72 379.61 158.58 387.35"/>
  <polygon class="st4" points="181.91 394.66 176.13 443.12 165.08 407.06 181.91 394.66"/>
  <polygon class="st11" points="181.91 394.66 158.58 387.35 164.96 376.23 164.97 376.23 181.91 394.66"/>
  <polygon class="st2" points="201.99 423.6 176.13 443.12 181.91 394.66 201.99 423.6"/>
  <polygon class="st4" points="222.06 400.87 201.99 423.6 181.91 394.66 222.06 400.87"/>
  <path class="st6" d="M197.34,380.03l-15.43,14.63-16.95-18.41c.27.04.54.07.81.08h.12l31.44,3.7h0Z"/>
  <polygon class="st8" points="181.91 394.66 165.08 407.06 158.58 387.35 181.91 394.66"/>
  <line class="st0" x1="165.78" y1="376.33" x2="164.96" y2="376.22"/>
  <polygon class="st2" points="261.86 403.63 248.74 423.19 248.59 402.52 261.86 403.63"/>
  <polygon class="st9" points="248.74 423.19 231.33 416.31 248.59 402.52 248.74 423.19"/>
  <polygon class="st5" points="248.59 402.52 231.33 416.31 222.06 400.87 248.59 402.52"/>
  <polygon class="st4" points="248.59 402.52 222.06 400.87 214.06 367.52 248.59 402.52"/>
  <polygon class="st12" points="214.06 367.52 197.34 380.03 184.07 357.93 214.06 367.52"/>
  <polygon class="st5" points="248.88 376.56 248.59 402.52 214.06 367.52 248.88 376.56"/>
  <polygon class="st10" points="244.89 352.74 214.06 367.52 222.27 348.16 244.89 352.74"/>
  <polygon class="st11" points="222.27 348.16 214.06 367.52 202.91 348.63 222.27 348.16"/>
  <polygon class="st10" points="214.06 367.52 184.07 357.93 202.91 348.63 214.06 367.52"/>
  <polygon class="st12" points="222.27 348.16 202.91 348.63 209.69 329.42 222.27 348.16"/>
  <polygon class="st14" points="209.69 329.42 202.91 348.63 195.27 339.32 195.27 339.31 195.3 339.28 209.69 329.42"/>
  <polygon class="st8" points="267.13 331.19 235.33 331.35 241.1 305.98 267.13 331.19"/>
  <polygon class="st11" points="264.62 346.3 244.89 352.74 235.33 331.35 264.62 346.3"/>
  <polygon class="st6" points="244.89 352.74 222.27 348.16 235.33 331.35 244.89 352.74"/>
  <polygon class="st14" points="235.33 331.35 222.27 348.16 209.69 329.42 235.33 331.35"/>
  <polygon class="st10" points="235.33 331.35 209.69 329.42 223.32 309.71 235.33 331.35"/>
  <polygon class="st12" points="223.32 309.71 209.69 329.42 203.42 319.09 223.32 309.71"/>
  <polygon class="st14" points="241.1 305.98 235.33 331.35 223.32 309.71 241.1 305.98"/>
  <polygon class="st10" points="267.13 331.19 264.62 346.3 235.33 331.35 267.13 331.19"/>
  <polygon class="st4" points="309.78 380.03 290.92 369.29 299.42 358.56 309.78 380.03"/>
  <polygon class="st10" points="309.78 380.03 282.8 391.92 290.92 369.29 309.78 380.03"/>
  <polygon class="st8" points="290.92 369.29 282.8 391.92 271.25 374.65 290.92 369.29"/>
  <polygon class="st4" points="271.25 374.65 260.67 387.05 248.88 376.56 271.25 374.65"/>
  <polygon class="st5" points="271.25 374.65 248.88 376.56 264.62 346.3 271.25 374.65"/>
  <polygon class="st4" points="282.42 349.51 271.25 374.65 264.62 346.3 282.42 349.51"/>
  <polygon class="st5" points="290.92 369.29 271.25 374.65 282.42 349.51 290.92 369.29"/>
  <polygon class="st2" points="299.42 358.56 290.92 369.29 282.42 349.51 299.42 358.56"/>
  <polygon class="st10" points="283.18 327.86 282.42 349.51 267.13 331.19 283.18 327.86"/>
  <polygon class="st8" points="283.18 327.86 267.13 331.19 270.1 309.02 283.18 327.86"/>
  <polygon class="st12" points="295.13 316.25 283.18 327.86 270.1 309.02 295.13 316.25"/>
  <polygon class="st12" points="285.31 297.89 270.1 309.02 264.33 293.47 285.31 297.89"/>
  <polygon class="st14" points="270.1 309.02 267.13 331.19 241.1 305.98 270.1 309.02"/>
  <polygon class="st10" points="270.1 309.02 241.1 305.98 264.33 293.47 270.1 309.02"/>
  <polygon class="st12" points="264.33 293.47 241.1 290.11 258.2 270.48 264.33 293.47"/>
  <path class="st14" d="M241.1,290.11l-17.79,19.6-3.09-22.71c.2-.26.43-.53.65-.77l20.24,3.88h-.01Z"/>
  <polygon class="st10" points="241.1 290.11 241.1 305.98 223.32 309.71 241.1 290.11"/>
  <line class="st0" x1="220.21" y1="287.01" x2="220.09" y2="286.1"/>
  <polygon class="st8" points="330.96 371.15 299.42 358.56 319.05 345.77 330.96 371.15"/>
  <polygon class="st11" points="330.96 371.15 319.47 394.55 309.78 380.03 330.96 371.15"/>
  <polygon class="st8" points="346.36 383.3 330.96 371.15 340.23 358.06 346.36 383.3"/>
  <polygon class="st10" points="282.8 391.92 260.67 387.05 271.25 374.65 282.8 391.92"/>
  <polygon class="st12" points="309.78 380.03 304.59 405.39 282.8 391.92 309.78 380.03"/>
  <polygon class="st4" points="261.86 403.63 248.59 402.52 260.67 387.05 261.86 403.63"/>
  <polygon class="st8" points="282.8 391.92 261.86 403.63 260.67 387.05 282.8 391.92"/>
  <polygon class="st10" points="282.8 391.92 270.97 413.84 261.86 403.63 282.8 391.92"/>
  <polygon class="st6" points="304.59 405.39 287.79 422.33 282.8 391.92 304.59 405.39"/>
  <polygon class="st11" points="319.47 394.55 311.27 424.88 304.59 405.39 319.47 394.55"/>
  <polygon class="st6" points="319.47 394.55 304.59 405.39 309.78 380.03 319.47 394.55"/>
  <polygon class="st6" points="334.26 421.5 311.27 424.88 319.47 394.55 334.26 421.5"/>
  <polygon class="st2" points="379.61 420.33 353.83 412.44 366.53 399.97 379.61 420.33"/>
  <polygon class="st4" points="353.83 412.44 353.35 433.35 334.26 421.5 353.83 412.44"/>
  <polygon class="st10" points="353.83 412.44 334.26 421.5 319.47 394.55 353.83 412.44"/>
  <polygon class="st8" points="353.83 412.44 319.47 394.55 346.36 383.3 353.83 412.44"/>
  <polygon class="st10" points="366.53 399.97 353.83 412.44 346.36 383.3 366.53 399.97"/>
  <polyline class="st1" points="340.89 36.9 340.7 36.86 340.54 36.83"/>
  <line class="st0" x1="255.61" y1="87.4" x2="254.66" y2="86.71"/>
  <g>
    <path class="st9" d="M277.76,207.39c-15.67,3.5-20.13-5.12-20.59-18.4l19.29-7.16,1.3,25.55Z"/>
    <path class="st2" d="M307.88,194.29c-2.43,1.11-4.85,2.3-7.24,3.61-2.49,1.34-4.84,2.55-7.04,3.65h-.03c.94-13.05,1.87-26.11,2.81-39.18l11.48,31.94h.01Z"/>
    <path class="st9" d="M330.92,185.91c-7.58,2.36-15.4,4.93-23.05,8.36l-11.48-31.94,34.53,23.56h0Z"/>
    <path class="st2" d="M331.67,185.67v.03c-.26.07-.49.15-.73.23h-.03l-34.53-23.56,34.26-8.47,1.03,31.79h0Z"/>
    <path class="st9" d="M364.59,172.78c-4.54,2.45-9.76,4.96-15.64,7.28-6.22,2.45-12.05,4.27-17.27,5.6l-1.03-31.79c11.32,6.3,22.63,12.59,33.95,18.9h0Z"/>
    <path class="st2" d="M381.18,153.57c-3.55,8.77-9.35,14.74-16.59,19.21-.03-9.12-.04-18.25-.07-27.37l16.66,8.16h0Z"/>
    <path class="st9" d="M384.95,133.82c-.18,5.67-.88,9.34-1.17,10.79-.64,3.28-1.5,6.25-2.6,8.96l-16.66-8.16c6.28-10.52,12.54-21.04,18.82-31.56,1.59,8.47,1.76,15.32,1.61,19.97Z"/>
    <polygon class="st4" points="330.64 153.88 296.39 162.35 310.7 135.63 330.64 153.88"/>
    <path class="st4" d="M271.17,162.35l-14,26.56c-.34-10,1.61-22.67,2.74-34.73l11.25,8.19h.01Z"/>
    <path class="st6" d="M259.92,154.16c.35-3.06.61-6.37.72-9.88.09-3.02.08-5.9,0-8.59,6.9-.27,13.81-.54,20.71-.81-7.14,6.43-14.29,12.87-21.43,19.29h0Z"/>
    <path class="st9" d="M383.34,113.85c-7.9-5.95-15.81-11.9-23.71-17.85l15.06-10.17.3.16c3.88,9.29,6.7,18.78,8.35,27.86Z"/>
    <path class="st4" d="M271.25,119.77c-3.54,5.31-7.09,10.61-10.63,15.93-.28-3.85-.64-7.8-1.07-11.85-.39-3.69-.84-7.28-1.31-10.78h.03l13,6.7h-.01,0Z"/>
    <path class="st11" d="M273.81,100.85l-15.55,12.21h-.03c-.99-8.12-2.05-16.89-2.63-25.68l18.21,13.46h0Z"/>
    <polygon class="st11" points="343.12 67.19 338.66 94.41 326.17 88.44 343.12 67.19"/>
    <path class="st5" d="M362.18,61.76v.03l-4.85,14.21-14.21-8.81,18.94-5.61s.08.11.12.19Z"/>
    <path class="st10" d="M362.05,61.57l-18.94,5.61,7.93-20.02c3.96,4.46,7.63,9.31,11.01,14.42h0Z"/>
    <path class="st14" d="M264.41,67.19l-8.96,17.91c-.73-12.43-.43-24.82,2.36-35.41l6.59,17.49h.01Z"/>
    <path class="st14" d="M340.54,36.83l-19.86-3.19,6.24-6.28c4.74,2.59,9.31,5.78,13.62,9.46Z"/>
    <path class="st12" d="M326.92,27.38l-6.24,6.28-7.55-11.89c4.74,1.27,9.35,3.19,13.79,5.61Z"/>
    <polygon class="st14" points="320.68 33.66 301.08 32.74 313.1 21.77 313.13 21.77 320.68 33.66"/>
    <polygon class="st12" points="320.68 33.66 296.35 43.34 301.08 32.74 320.68 33.66"/>
    <path class="st10" d="M313.1,21.77c-4.01,3.66-8.03,7.31-12.04,10.97-2.01-4.28-4-8.58-6.01-12.87,1.38-.07,2.83-.08,4.34-.04,5.19.14,9.8.94,13.69,1.95h.01Z"/>
    <path class="st14" d="M295.07,19.87l-8.65,11.01-12.35-5.21c5.44-3.38,12.32-5.44,20.99-5.8h.01Z"/>
    <path class="st14" d="M273.26,26.19l-5.42,23.21-10.02.3c2.58-9.88,7.35-18.18,15.44-23.49h0Z"/>
    <polygon class="st14" points="301.08 32.74 296.35 43.34 286.42 30.87 301.08 32.74"/>
    <path class="st14" d="M351.05,47.15l-21.68,1.53,11.28-11.77c3.65,3.09,7.12,6.53,10.4,10.24h0Z"/>
    <path class="st4" d="M374.99,85.99l-.3-.16-17.37-9.84,4.85-14.21c4.96,7.54,9.23,15.66,12.68,23.91.04.11.08.19.12.3h.01Z"/>
    <line class="st0" x1="277.11" y1="181.59" x2="276.61" y2="181.78"/>
    <path class="st2" d="M293.61,201.53c-2.55,1.29-5.49,2.59-8.8,3.76-2.49.88-4.85,1.57-7.05,2.11-.43-8.51-.87-17.04-1.3-25.55,5.71,6.56,11.43,13.12,17.14,19.7h.01Z"/>
    <path class="st9" d="M296.39,162.35c-.94,13.05-1.87,26.11-2.81,39.18-5.71-6.56-11.41-13.12-17.12-19.7,6.64-6.49,13.29-12.99,19.93-19.48Z"/>
    <path class="st4" d="M296.39,162.35c-6.64,6.49-13.29,12.99-19.93,19.48-1.76-6.49-3.52-12.99-5.3-19.48h25.23Z"/>
    <path class="st2" d="M276.47,181.83l-19.29,7.16v-.08l14-26.56c1.76,6.49,3.52,12.99,5.3,19.48h-.01,0Z"/>
    <polygon class="st9" points="310.7 135.63 296.39 162.35 281.34 134.87 310.7 135.63"/>
    <polygon class="st5" points="296.39 162.35 271.17 162.35 281.34 134.87 296.39 162.35"/>
    <path class="st2" d="M281.34,134.87l-10.17,27.48-11.25-8.19c7.14-6.43,14.29-12.87,21.43-19.29h-.01Z"/>
    <polygon class="st5" points="336.3 138.26 330.64 153.88 310.7 135.63 336.3 138.26"/>
    <path class="st4" d="M364.52,145.41c.03,9.12.04,18.25.07,27.37-11.32-6.3-22.63-12.59-33.95-18.9l33.88-8.47h0Z"/>
    <polygon class="st2" points="364.52 145.41 336.3 138.26 347.59 109.7 364.52 145.41"/>
    <polygon class="st9" points="364.52 145.41 330.64 153.88 336.3 138.26 364.52 145.41"/>
    <path class="st2" d="M383.34,113.85c-6.28,10.52-12.54,21.04-18.82,31.56l-.38-33.11c6.4.52,12.8,1.03,19.2,1.55Z"/>
    <polygon class="st9" points="364.52 145.41 347.59 109.7 364.14 112.3 364.52 145.41"/>
    <polygon class="st5" points="364.14 112.3 347.59 109.7 359.63 95.99 364.14 112.3"/>
    <path class="st4" d="M383.34,113.85c-6.4-.52-12.8-1.03-19.2-1.55l-4.51-16.29c7.9,5.95,15.81,11.9,23.71,17.85h0Z"/>
    <polygon class="st6" points="336.3 138.26 310.7 135.63 320.06 109.7 336.3 138.26"/>
    <polygon class="st5" points="347.59 109.7 336.3 138.26 320.06 109.7 347.59 109.7"/>
    <polygon class="st2" points="374.69 85.83 359.63 95.99 357.32 76 374.69 85.83"/>
    <polygon class="st5" points="359.63 95.99 338.66 94.41 357.32 76 359.63 95.99"/>
    <polygon class="st2" points="359.63 95.99 347.59 109.7 338.66 94.41 359.63 95.99"/>
    <polygon class="st6" points="357.32 76 338.66 94.41 343.12 67.19 357.32 76"/>
    <polygon class="st4" points="347.59 109.7 320.06 109.7 338.66 94.41 347.59 109.7"/>
    <polygon class="st6" points="338.66 94.41 320.06 109.7 326.17 88.44 338.66 94.41"/>
    <polygon class="st8" points="343.12 67.19 326.17 88.44 320.06 65.69 343.12 67.19"/>
    <polygon class="st11" points="326.17 88.44 320.06 109.7 312.02 85.2 326.17 88.44"/>
    <polygon class="st5" points="326.17 88.44 312.02 85.2 320.06 65.69 326.17 88.44"/>
    <polygon class="st6" points="320.06 65.69 312.02 85.2 301.08 64.84 320.06 65.69"/>
    <polygon class="st12" points="351.05 47.15 343.12 67.19 329.37 48.68 351.05 47.15"/>
    <path class="st5" d="M281.34,134.87c-6.9.27-13.81.54-20.71.81,3.54-5.31,7.09-10.61,10.63-15.93l10.09,15.12Z"/>
    <polygon class="st4" points="296.31 115.47 281.34 134.87 271.25 119.77 296.31 115.47"/>
    <polygon class="st6" points="310.7 135.63 281.34 134.87 296.31 115.47 310.7 135.63"/>
    <polygon class="st11" points="320.06 109.7 310.7 135.63 296.31 115.47 320.06 109.7"/>
    <polygon class="st4" points="320.06 109.7 296.31 115.47 296.39 102.84 320.06 109.7"/>
    <polygon class="st6" points="296.39 102.84 296.31 115.47 273.81 100.85 296.39 102.84"/>
    <polygon class="st5" points="296.31 115.47 271.25 119.77 273.81 100.85 296.31 115.47"/>
    <polygon class="st6" points="273.81 100.85 271.25 119.77 258.27 113.07 273.81 100.85"/>
    <polygon class="st6" points="343.12 67.19 320.06 65.69 329.37 48.68 343.12 67.19"/>
    <polygon class="st12" points="329.37 48.68 320.06 65.69 320.68 33.66 329.37 48.68"/>
    <polygon class="st11" points="320.68 33.66 320.06 65.69 304.21 55.42 320.68 33.66"/>
    <path class="st10" d="M340.65,36.93l-11.28,11.77-8.69-15.02,19.86,3.19s.08.04.11.08h0Z"/>
    <polygon class="st10" points="304.21 55.42 301.08 64.84 285.04 56.61 304.21 55.42"/>
    <polygon class="st10" points="320.68 33.66 304.21 55.42 296.35 43.34 320.68 33.66"/>
    <polygon class="st11" points="304.21 55.42 285.04 56.61 296.35 43.34 304.21 55.42"/>
    <polygon class="st8" points="320.06 65.69 301.08 64.84 304.21 55.42 320.06 65.69"/>
    <polygon class="st12" points="301.08 32.74 286.42 30.87 295.07 19.87 301.08 32.74"/>
    <polygon class="st12" points="296.35 43.34 285.04 56.61 286.42 30.87 296.35 43.34"/>
    <path class="st12" d="M286.42,30.87l-18.59,18.52,5.42-23.21c.27-.19.53-.38.8-.53h.03l12.35,5.21h-.01Z"/>
    <polygon class="st10" points="286.42 30.87 285.04 56.61 267.85 49.4 286.42 30.87"/>
    <polygon class="st14" points="285.04 56.61 264.41 67.19 267.85 49.4 285.04 56.61"/>
    <polygon class="st12" points="267.85 49.4 264.41 67.19 257.82 49.68 267.85 49.4"/>
    <polygon class="st5" points="320.06 109.7 296.39 102.84 312.02 85.2 320.06 109.7"/>
    <path class="st10" d="M276.26,75.44l-2.45,25.4-18.21-13.46c-.03-.38-.07-.76-.07-1.13l20.71-10.82h.01Z"/>
    <polygon class="st11" points="287.6 80.78 273.81 100.85 276.26 75.44 287.6 80.78"/>
    <polygon class="st5" points="296.39 102.84 273.81 100.85 287.6 80.78 296.39 102.84"/>
    <polygon class="st4" points="312.02 85.2 296.39 102.84 287.6 80.78 312.02 85.2"/>
    <polygon class="st11" points="312.02 85.2 287.6 80.78 301.08 64.84 312.02 85.2"/>
    <polygon class="st6" points="301.08 64.84 287.6 80.78 285.04 56.61 301.08 64.84"/>
    <polygon class="st8" points="287.6 80.78 276.26 75.44 285.04 56.61 287.6 80.78"/>
    <polygon class="st10" points="285.04 56.61 276.26 75.44 264.41 67.19 285.04 56.61"/>
    <path class="st12" d="M276.26,75.44l-20.71,10.82c-.04-.38-.07-.76-.08-1.15v-.03l8.96-17.91,11.85,8.27h-.01Z"/>
  </g>
  <line class="st0" x1="255.46" y1="85.12" x2="254.66" y2="86.71"/>
  <polygon class="st9" points="446.16 311.14 408.78 301.24 439.15 293.47 446.16 311.14"/>
  <path class="st9" d="M454.8,275.13c-.12,4.92-.57,9.75-1.36,14.37l-14.29,3.97,15.66-18.36h-.01Z"/>
  <polygon class="st4" points="454.8 275.13 439.15 293.47 436.91 274.18 454.8 275.13"/>
  <polygon class="st2" points="408.78 301.24 397.04 329.84 385.07 305.98 408.78 301.24"/>
  <path class="st9" d="M385.07,305.98l-23.91-1.5c3-7.51,6.01-15.01,9-22.52l14.93,24.02h-.01Z"/>
  <polygon class="st9" points="408.78 301.24 388.44 285.03 401.6 277.05 408.78 301.24"/>
  <polygon class="st5" points="415.25 279.9 408.78 301.24 401.6 277.05 415.25 279.9"/>
  <polygon class="st6" points="420.96 260.85 415.25 279.9 401.6 277.05 420.96 260.85"/>
  <polygon class="st4" points="436.91 274.18 415.25 279.9 420.96 260.85 436.91 274.18"/>
  <polygon class="st5" points="436.91 274.18 420.96 260.85 428.93 247.31 436.91 274.18"/>
  <polygon class="st4" points="454.05 258.09 436.91 274.18 428.93 247.31 454.05 258.09"/>
  <path class="st6" d="M451.66,243.53l-22.72,3.78,18.82-18.02c1.53,4.58,2.85,9.35,3.92,14.23h-.01Z"/>
  <polygon class="st10" points="369.63 239.72 346.36 246.2 357.85 231.94 369.63 239.72"/>
  <polygon class="st6" points="395.01 234.87 377.6 252.71 369.63 239.72 395.01 234.87"/>
  <polygon class="st11" points="377.6 252.71 366.34 250.24 369.63 239.72 377.6 252.71"/>
  <polygon class="st10" points="377.6 252.71 373.63 263.09 366.34 250.24 377.6 252.71"/>
  <polygon class="st12" points="346.36 246.2 345.19 255.74 328 246.2 346.36 246.2"/>
  <polygon class="st11" points="352.17 260.75 345.19 255.74 346.36 246.2 352.17 260.75"/>
  <polygon class="st6" points="373.63 263.09 352.17 260.75 366.34 250.24 373.63 263.09"/>
  <polygon class="st10" points="352.17 260.75 345.77 270.44 345.19 255.74 352.17 260.75"/>
  <polygon class="st6" points="370.15 281.96 345.77 270.44 352.17 260.75 370.15 281.96"/>
  <polygon class="st8" points="345.77 270.44 326.86 260.12 345.19 255.74 345.77 270.44"/>
  <polygon class="st5" points="370.15 281.96 350.78 294.5 345.77 270.44 370.15 281.96"/>
  <polygon class="st10" points="395.01 234.87 383.34 229.99 386.31 219.82 395.01 234.87"/>
  <polygon class="st10" points="383.34 229.99 369.63 239.72 366.93 226.06 383.34 229.99"/>
  <polygon class="st14" points="386.31 219.82 383.34 229.99 366.93 226.06 386.31 219.82"/>
  <polygon class="st11" points="428.93 247.31 420.96 260.85 406.21 250.97 428.93 247.31"/>
  <polygon class="st6" points="420.96 260.85 391.05 265.59 406.21 250.97 420.96 260.85"/>
  <polygon class="st8" points="428.93 247.31 406.21 250.97 410.98 234.91 428.93 247.31"/>
  <polygon class="st11" points="406.21 250.97 377.6 252.71 395.01 234.87 406.21 250.97"/>
  <polygon class="st6" points="410.98 234.91 406.21 250.97 395.01 234.87 410.98 234.91"/>
  <polygon class="st11" points="410.98 234.91 395.01 234.87 403.62 216.09 410.98 234.91"/>
  <polygon class="st8" points="403.62 216.09 395.01 234.87 386.31 219.82 403.62 216.09"/>
  <polygon class="st14" points="392.19 202.82 386.31 219.82 378.12 211.44 392.19 202.82"/>
  <polygon class="st10" points="403.62 216.09 386.31 219.82 392.19 202.82 403.62 216.09"/>
  <polygon class="st12" points="406.18 201.68 403.62 216.09 392.19 202.82 406.18 201.68"/>
  <path class="st14" d="M406.18,201.68l-14,1.15-2.43-8.92c.15-.19.34-.39.5-.58l15.93,8.35h0Z"/>
  <line class="st0" x1="390.27" y1="193.33" x2="389.49" y2="192.92"/>
  <polygon class="st10" points="418.52 207.13 410.98 234.91 403.62 216.09 418.52 207.13"/>
  <polygon class="st14" points="418.52 207.13 403.62 216.09 406.18 201.68 418.52 207.13"/>
  <polygon class="st12" points="420.71 188.33 418.52 207.13 406.18 201.68 420.69 188.33 420.71 188.33"/>
  <polygon class="st12" points="432.93 200.43 425.54 217.95 418.52 207.13 432.93 200.43"/>
  <polygon class="st8" points="428.93 229.32 410.98 234.91 425.54 217.95 428.93 229.32"/>
  <polygon class="st12" points="441.89 215.36 428.93 229.32 425.54 217.95 441.89 215.36"/>
  <polygon class="st4" points="401.6 277.05 388.44 285.03 391.05 265.59 401.6 277.05"/>
  <polygon class="st5" points="420.96 260.85 401.6 277.05 391.05 265.59 420.96 260.85"/>
  <polygon class="st6" points="391.05 265.59 370.15 281.96 373.63 263.09 391.05 265.59"/>
  <polygon class="st4" points="373.63 263.09 370.15 281.96 352.17 260.75 373.63 263.09"/>
  <polygon class="st4" points="406.21 250.97 391.05 265.59 373.63 263.09 406.21 250.97"/>
  <polygon class="st5" points="406.21 250.97 373.63 263.09 377.6 252.71 406.21 250.97"/>
</svg>